<svg id="visual" viewBox="0 0 900 600" width="900" height="600" xmlns="http://www.w3.org/2000/svg" xmlns:xlink="http://www.w3.org/1999/xlink" version="1.1"><g stroke-width="10" stroke-linejoin="bevel"><path d="M437 312L437 399L482 302Z" fill="#224658" stroke="#FFFFFF"></path><path d="M437 399L465 423L482 302Z" fill="#0b1d2a" stroke="#FFFFFF"></path><path d="M465 423L564 298L482 302Z" fill="#1b3849" stroke="#FFFFFF"></path><path d="M465 423L522 464L564 298Z" fill="#1b3849" stroke="#FFFFFF"></path><path d="M275 394L376 478L437 399Z" fill="#1b3849" stroke="#FFFFFF"></path><path d="M437 399L376 478L465 423Z" fill="#071723" stroke="#FFFFFF"></path><path d="M465 423L376 478L522 464Z" fill="#224658" stroke="#FFFFFF"></path><path d="M522 464L635 385L564 298Z" fill="#0f2432" stroke="#FFFFFF"></path><path d="M564 298L476 169L482 302Z" fill="#071723" stroke="#FFFFFF"></path><path d="M482 302L476 169L437 312Z" fill="#071723" stroke="#FFFFFF"></path><path d="M437 312L275 394L437 399Z" fill="#1b3849" stroke="#FFFFFF"></path><path d="M585 165L476 169L564 298Z" fill="#132a39" stroke="#FFFFFF"></path><path d="M286 278L275 394L437 312Z" fill="#1b3849" stroke="#FFFFFF"></path><path d="M377 165L286 278L437 312Z" fill="#264e60" stroke="#FFFFFF"></path><path d="M674 494L668 386L635 385Z" fill="#264e60" stroke="#FFFFFF"></path><path d="M635 385L674 297L564 298Z" fill="#0f2432" stroke="#FFFFFF"></path><path d="M668 386L674 297L635 385Z" fill="#264e60" stroke="#FFFFFF"></path><path d="M476 169L377 165L437 312Z" fill="#132a39" stroke="#FFFFFF"></path><path d="M275 394L334 528L376 478Z" fill="#132a39" stroke="#FFFFFF"></path><path d="M376 478L433 600L522 464Z" fill="#264e60" stroke="#FFFFFF"></path><path d="M674 297L585 165L564 298Z" fill="#0f2432" stroke="#FFFFFF"></path><path d="M476 169L425 125L377 165Z" fill="#2a5568" stroke="#FFFFFF"></path><path d="M377 165L329 172L286 278Z" fill="#264e60" stroke="#FFFFFF"></path><path d="M475 110L425 125L476 169Z" fill="#0b1d2a" stroke="#FFFFFF"></path><path d="M377 165L339 79L329 172Z" fill="#2a5568" stroke="#FFFFFF"></path><path d="M531 600L624 534L522 464Z" fill="#1f3f50" stroke="#FFFFFF"></path><path d="M522 464L624 534L635 385Z" fill="#132a39" stroke="#FFFFFF"></path><path d="M286 278L226 363L275 394Z" fill="#071723" stroke="#FFFFFF"></path><path d="M275 394L237 532L334 528Z" fill="#224658" stroke="#FFFFFF"></path><path d="M168 263L226 363L286 278Z" fill="#173141" stroke="#FFFFFF"></path><path d="M585 165L475 110L476 169Z" fill="#264e60" stroke="#FFFFFF"></path><path d="M624 534L674 494L635 385Z" fill="#264e60" stroke="#FFFFFF"></path><path d="M829 339L725 225L674 297Z" fill="#224658" stroke="#FFFFFF"></path><path d="M334 528L433 600L376 478Z" fill="#0b1d2a" stroke="#FFFFFF"></path><path d="M433 600L531 600L522 464Z" fill="#264e60" stroke="#FFFFFF"></path><path d="M334 528L331 600L433 600Z" fill="#173141" stroke="#FFFFFF"></path><path d="M237 532L331 600L334 528Z" fill="#173141" stroke="#FFFFFF"></path><path d="M674 297L725 225L585 165Z" fill="#224658" stroke="#FFFFFF"></path><path d="M585 165L602 77L475 110Z" fill="#173141" stroke="#FFFFFF"></path><path d="M829 339L674 297L668 386Z" fill="#264e60" stroke="#FFFFFF"></path><path d="M624 534L728 600L674 494Z" fill="#224658" stroke="#FFFFFF"></path><path d="M531 600L627 600L624 534Z" fill="#224658" stroke="#FFFFFF"></path><path d="M136 439L237 532L275 394Z" fill="#173141" stroke="#FFFFFF"></path><path d="M425 125L339 79L377 165Z" fill="#0b1d2a" stroke="#FFFFFF"></path><path d="M162 208L168 263L286 278Z" fill="#071723" stroke="#FFFFFF"></path><path d="M378 0L339 79L425 125Z" fill="#2a5568" stroke="#FFFFFF"></path><path d="M683 92L602 77L585 165Z" fill="#173141" stroke="#FFFFFF"></path><path d="M475 110L378 0L425 125Z" fill="#224658" stroke="#FFFFFF"></path><path d="M162 208L286 278L329 172Z" fill="#071723" stroke="#FFFFFF"></path><path d="M226 363L136 439L275 394Z" fill="#264e60" stroke="#FFFFFF"></path><path d="M725 225L683 92L585 165Z" fill="#1b3849" stroke="#FFFFFF"></path><path d="M219 114L162 208L329 172Z" fill="#1b3849" stroke="#FFFFFF"></path><path d="M93 290L226 363L168 263Z" fill="#071723" stroke="#FFFFFF"></path><path d="M93 290L136 439L226 363Z" fill="#1f3f50" stroke="#FFFFFF"></path><path d="M339 79L219 114L329 172Z" fill="#1b3849" stroke="#FFFFFF"></path><path d="M627 600L728 600L624 534Z" fill="#1b3849" stroke="#FFFFFF"></path><path d="M834 389L829 339L668 386Z" fill="#224658" stroke="#FFFFFF"></path><path d="M609 0L497 0L602 77Z" fill="#071723" stroke="#FFFFFF"></path><path d="M602 77L497 0L475 110Z" fill="#173141" stroke="#FFFFFF"></path><path d="M339 79L230 0L219 114Z" fill="#132a39" stroke="#FFFFFF"></path><path d="M834 389L668 386L674 494Z" fill="#0f2432" stroke="#FFFFFF"></path><path d="M725 225L799 192L683 92Z" fill="#00101c" stroke="#FFFFFF"></path><path d="M811 515L834 389L674 494Z" fill="#0f2432" stroke="#FFFFFF"></path><path d="M829 339L799 192L725 225Z" fill="#132a39" stroke="#FFFFFF"></path><path d="M497 0L378 0L475 110Z" fill="#1f3f50" stroke="#FFFFFF"></path><path d="M237 532L189 600L331 600Z" fill="#0b1d2a" stroke="#FFFFFF"></path><path d="M136 439L189 600L237 532Z" fill="#173141" stroke="#FFFFFF"></path><path d="M728 600L811 515L674 494Z" fill="#264e60" stroke="#FFFFFF"></path><path d="M378 0L338 0L339 79Z" fill="#132a39" stroke="#FFFFFF"></path><path d="M683 92L609 0L602 77Z" fill="#0b1d2a" stroke="#FFFFFF"></path><path d="M733 0L609 0L683 92Z" fill="#132a39" stroke="#FFFFFF"></path><path d="M106 218L168 263L162 208Z" fill="#00101c" stroke="#FFFFFF"></path><path d="M106 218L93 290L168 263Z" fill="#264e60" stroke="#FFFFFF"></path><path d="M98 126L106 218L162 208Z" fill="#00101c" stroke="#FFFFFF"></path><path d="M98 126L162 208L219 114Z" fill="#132a39" stroke="#FFFFFF"></path><path d="M728 600L783 600L811 515Z" fill="#1f3f50" stroke="#FFFFFF"></path><path d="M0 413L63 482L136 439Z" fill="#264e60" stroke="#FFFFFF"></path><path d="M136 439L102 600L189 600Z" fill="#1f3f50" stroke="#FFFFFF"></path><path d="M338 0L230 0L339 79Z" fill="#1b3849" stroke="#FFFFFF"></path><path d="M834 389L900 386L829 339Z" fill="#1b3849" stroke="#FFFFFF"></path><path d="M829 339L900 239L799 192Z" fill="#132a39" stroke="#FFFFFF"></path><path d="M811 515L900 386L834 389Z" fill="#1b3849" stroke="#FFFFFF"></path><path d="M900 536L900 386L811 515Z" fill="#224658" stroke="#FFFFFF"></path><path d="M900 386L900 314L829 339Z" fill="#1f3f50" stroke="#FFFFFF"></path><path d="M0 296L0 413L93 290Z" fill="#0b1d2a" stroke="#FFFFFF"></path><path d="M93 290L0 413L136 439Z" fill="#2a5568" stroke="#FFFFFF"></path><path d="M88 0L98 126L219 114Z" fill="#2a5568" stroke="#FFFFFF"></path><path d="M816 74L683 92L799 192Z" fill="#1b3849" stroke="#FFFFFF"></path><path d="M816 74L733 0L683 92Z" fill="#071723" stroke="#FFFFFF"></path><path d="M63 482L102 600L136 439Z" fill="#132a39" stroke="#FFFFFF"></path><path d="M900 314L900 239L829 339Z" fill="#0b1d2a" stroke="#FFFFFF"></path><path d="M900 107L816 74L799 192Z" fill="#0f2432" stroke="#FFFFFF"></path><path d="M900 600L900 536L811 515Z" fill="#1f3f50" stroke="#FFFFFF"></path><path d="M900 0L783 0L816 74Z" fill="#0f2432" stroke="#FFFFFF"></path><path d="M816 74L783 0L733 0Z" fill="#00101c" stroke="#FFFFFF"></path><path d="M0 296L93 290L0 197Z" fill="#1b3849" stroke="#FFFFFF"></path><path d="M63 482L0 600L102 600Z" fill="#071723" stroke="#FFFFFF"></path><path d="M0 197L93 290L106 218Z" fill="#264e60" stroke="#FFFFFF"></path><path d="M0 413L0 469L63 482Z" fill="#2a5568" stroke="#FFFFFF"></path><path d="M783 600L900 600L811 515Z" fill="#0b1d2a" stroke="#FFFFFF"></path><path d="M0 137L0 197L98 126Z" fill="#132a39" stroke="#FFFFFF"></path><path d="M98 126L0 197L106 218Z" fill="#00101c" stroke="#FFFFFF"></path><path d="M900 239L900 107L799 192Z" fill="#1f3f50" stroke="#FFFFFF"></path><path d="M0 0L0 137L98 126Z" fill="#0b1d2a" stroke="#FFFFFF"></path><path d="M230 0L88 0L219 114Z" fill="#00101c" stroke="#FFFFFF"></path><path d="M0 469L0 600L63 482Z" fill="#224658" stroke="#FFFFFF"></path><path d="M900 107L900 0L816 74Z" fill="#00101c" stroke="#FFFFFF"></path><path d="M88 0L0 0L98 126Z" fill="#00101c" stroke="#FFFFFF"></path></g></svg>