<svg id="visual" viewBox="0 0 900 600" width="900" height="600" xmlns="http://www.w3.org/2000/svg" xmlns:xlink="http://www.w3.org/1999/xlink" version="1.1"><path d="M0 389L21.5 388C43 387 86 385 128.8 371.5C171.7 358 214.3 333 257.2 320.7C300 308.3 343 308.7 385.8 318.3C428.7 328 471.3 347 514.2 354.2C557 361.3 600 356.7 642.8 377.7C685.7 398.7 728.3 445.3 771.2 446C814 446.7 857 401.3 878.5 378.7L900 356L900 601L878.5 601C857 601 814 601 771.2 601C728.3 601 685.7 601 642.8 601C600 601 557 601 514.2 601C471.3 601 428.7 601 385.8 601C343 601 300 601 257.2 601C214.3 601 171.7 601 128.8 601C86 601 43 601 21.5 601L0 601Z" fill="#0066FF" stroke-linecap="round" stroke-linejoin="miter"></path></svg>